<svg t="1595127166881" class="icon" viewBox="0 0 1024 1024" version="1.1" xmlns="http://www.w3.org/2000/svg" p-id="4403" width="200" height="200"><path d="M894.482963 767.730526c-20.529903 5.50924-37.876023-20.929123-58.695361-60.471891A338.514838 338.514838 0 0 1 769.507057 814.409357c47.776686 30.540351 74.494503 73.606238 64.124756 112.240779-14.781131 55.092398-96.671189 65.821442-188.891072 56.369903-51.329747-5.269708-93.73692-26.029162-117.779961-56.12039-4.471267 0.179649-8.952515 0.289435-13.463704 0.289435-5.269708 0-10.509474-0.139727-15.719298-0.369279-23.993138 30.181053-66.410292 51.020351-117.789942 56.290059-92.110097 9.45154-173.920312-1.277505-188.691462-56.379883-10.62924-39.692476 17.795244-84.045848 67.957271-114.715946a337.33115 337.33115 0 0 1-66.120857-116.682105c-23.63384 45.88039-42.307368 78.217232-64.833373 72.189006-34.213177-9.172086-32.855828-87.030019-8.034308-179.669084 17.186433-64.144717 51.728967-115.145107 82.70846-137.411618 0.039922-1.367329 0.069864-2.724678 0.129747-4.101988 1.1777-29.093177 12.146277-55.990643 30.939571-79.764211V318.378168c0-155.436413 126.013879-281.450292 281.450292-281.450293s281.450292 126.013879 281.450293 281.450293v43.984093c21.85731 25.160858 34.642339 53.685146 35.929824 83.975985q0.299415 7.230877 0.479065 14.292085c0.219571 0.548928 0.419181 1.097856 0.638752 1.646784 26.817622 25.98924 53.934659 71.041248 68.52616 125.584717 24.82152 92.74885 26.178869 170.696608-8.034308 179.868694z" fill="#E61D15" p-id="4404"></path></svg>